<?xml version="1.0" encoding="utf-8"?>
<!-- Generator: Adobe Illustrator 16.0.4, SVG Export Plug-In . SVG Version: 6.00 Build 0)  -->
<!DOCTYPE svg PUBLIC "-//W3C//DTD SVG 1.1//EN" "http://www.w3.org/Graphics/SVG/1.1/DTD/svg11.dtd">
<svg version="1.1" id="Layer_1" xmlns="http://www.w3.org/2000/svg" xmlns:xlink="http://www.w3.org/1999/xlink" x="0px" y="0px"
	 width="50px" height="22.903px" viewBox="0 0 50 22.903" enable-background="new 0 0 50 22.903" xml:space="preserve">
<line fill="none" stroke="#000000" stroke-linecap="round" stroke-miterlimit="10" x1="8.46" y1="-30.549" x2="25.908" y2="-30.549"/>
<polyline fill="none" stroke="#000000" stroke-linecap="round" stroke-miterlimit="10" points="22.137,-34.321 25.908,-30.549 
	22.137,-26.776 "/>
<g>
	<path fill="#180E23" d="M48.104,12.792H1.34c-0.741,0-1.34-0.601-1.34-1.341c0-0.741,0.599-1.34,1.34-1.34h46.765
		c0.741,0,1.341,0.599,1.341,1.34C49.445,12.191,48.846,12.792,48.104,12.792z"/>
</g>
<g>
	<path fill="#180E23" d="M37.996,22.903c-0.343,0-0.686-0.131-0.947-0.394c-0.523-0.523-0.523-1.372,0-1.895l9.161-9.164
		l-9.161-9.164c-0.523-0.524-0.523-1.372,0-1.895c0.523-0.523,1.371-0.523,1.896,0L50,11.451L38.944,22.51
		C38.682,22.772,38.34,22.903,37.996,22.903z"/>
</g>
</svg>
