<?xml version="1.0" encoding="utf-8"?>
<!-- Generator: Adobe Illustrator 16.0.4, SVG Export Plug-In . SVG Version: 6.00 Build 0)  -->
<!DOCTYPE svg PUBLIC "-//W3C//DTD SVG 1.1//EN" "http://www.w3.org/Graphics/SVG/1.1/DTD/svg11.dtd">
<svg version="1.1" id="Layer_1" xmlns="http://www.w3.org/2000/svg" xmlns:xlink="http://www.w3.org/1999/xlink" x="0px" y="0px"
	 width="100px" height="100px" viewBox="0 0 100 100" enable-background="new 0 0 100 100" xml:space="preserve">
<g>
	<path fill="#160521" d="M49.996,100C22.429,100,0.001,77.57,0.001,50c0-27.569,22.428-49.999,49.995-49.999
		C77.57,0.001,100,22.431,100,50C100,77.57,77.57,100,49.996,100z M49.996,2.026c-26.45,0-47.97,21.522-47.97,47.974
		c0,26.454,21.52,47.975,47.97,47.975c26.456,0,47.979-21.521,47.979-47.975C97.975,23.549,76.452,2.026,49.996,2.026z"/>
</g>
<g>
	<path fill="#160521" d="M59.51,38.343c-5.282,5.278-13.836,5.278-19.114,0c-5.279-5.282-5.279-13.84,0-19.115
		c5.278-5.278,13.832-5.278,19.114,0C64.788,24.503,64.788,33.064,59.51,38.343z"/>
	<path fill="#160521" d="M80.822,59.659c-5.278,5.271-13.836,5.271-19.114,0c-5.283-5.286-5.283-13.84,0-19.119
		c5.278-5.278,13.836-5.282,19.114,0C86.097,45.819,86.097,54.373,80.822,59.659z"/>
	<path fill="#160521" d="M38.288,59.564c-5.274,5.271-13.828,5.271-19.106,0c-5.282-5.287-5.282-13.845,0-19.119
		c5.278-5.278,13.832-5.282,19.106,0C43.567,45.72,43.567,54.277,38.288,59.564z"/>
	<path fill="#160521" d="M59.601,80.869c-5.274,5.278-13.836,5.278-19.114,0c-5.271-5.275-5.271-13.837,0-19.107
		c5.278-5.286,13.84-5.286,19.114,0C64.88,67.032,64.88,75.594,59.601,80.869z"/>
</g>
</svg>
