<?xml version="1.0" encoding="utf-8"?>
<!-- Generator: Adobe Illustrator 16.0.4, SVG Export Plug-In . SVG Version: 6.00 Build 0)  -->
<!DOCTYPE svg PUBLIC "-//W3C//DTD SVG 1.1//EN" "http://www.w3.org/Graphics/SVG/1.1/DTD/svg11.dtd">
<svg version="1.1" id="Layer_1" xmlns="http://www.w3.org/2000/svg" xmlns:xlink="http://www.w3.org/1999/xlink" x="0px" y="0px"
	 width="100px" height="100px" viewBox="0 0 100 100" enable-background="new 0 0 100 100" xml:space="preserve">
<g>
	<g>
		<g>
			<path fill="#160521" d="M15.407,14.99l34.641,34.64l34.639-34.64C65.556,34.121,34.536,34.119,15.407,14.99z"/>
		</g>
	</g>
	<g>
		<g>
			<path fill="#160521" d="M84.687,14.988L50.048,49.63l34.639,34.642C65.556,65.136,65.56,34.117,84.687,14.988z"/>
		</g>
	</g>
	<g>
		<g>
			<path fill="#160521" d="M84.687,84.271L50.048,49.63L15.407,84.271C34.538,65.136,65.56,65.14,84.687,84.271z"/>
		</g>
	</g>
	<g>
		<g>
			<path fill="#160521" d="M15.407,84.271L50.048,49.63L15.407,14.99C34.538,34.121,34.536,65.14,15.407,84.271z"/>
		</g>
	</g>
</g>
<g>
	<path fill="#160521" d="M50,100.002C22.43,100.002,0,77.57,0,50C0,22.428,22.43-0.001,50-0.001S100,22.428,100,50
		C100,77.57,77.57,100.002,50,100.002z M50,2.035C23.554,2.035,2.036,23.551,2.036,50c0,26.446,21.518,47.965,47.964,47.965
		S97.964,76.445,97.964,50C97.964,23.551,76.446,2.035,50,2.035z"/>
</g>
</svg>
