<?xml version="1.0" encoding="utf-8"?>
<!-- Generator: Adobe Illustrator 16.0.4, SVG Export Plug-In . SVG Version: 6.00 Build 0)  -->
<!DOCTYPE svg PUBLIC "-//W3C//DTD SVG 1.1//EN" "http://www.w3.org/Graphics/SVG/1.1/DTD/svg11.dtd">
<svg version="1.1" id="Layer_1" xmlns="http://www.w3.org/2000/svg" xmlns:xlink="http://www.w3.org/1999/xlink" x="0px" y="0px"
	 width="100px" height="100px" viewBox="0 0 100 100" enable-background="new 0 0 100 100" xml:space="preserve">
<g>
	<path fill="#160521" d="M50.001,99.998C22.43,99.998,0,77.568,0,49.998S22.43-0.003,50.001-0.003
		C77.57-0.003,100,22.428,100,49.998S77.57,99.998,50.001,99.998z M50.001,2.023c-26.453,0-47.976,21.521-47.976,47.975
		c0,26.452,21.522,47.975,47.976,47.975c26.451,0,47.974-21.522,47.974-47.975C97.975,23.544,76.452,2.023,50.001,2.023z"/>
</g>
<path fill-rule="evenodd" clip-rule="evenodd" fill="#160521" d="M46.792,49.571c-4.604-3.301-9.523-4.25-14.535-4.916
	c-1.92-0.253-3.891-0.257-5.767-0.688c-3.847-0.886-6.438-4.124-6.627-7.954c-0.195-3.993,1.985-7.523,5.466-8.849
	c3.89-1.48,8.216-0.499,10.451,2.747c1.903,2.758,3.295,5.873,5.154,8.667c1.344,2.019,3.046,3.811,4.672,5.627
	c0.57,0.637,1.39,1.049,2.096,1.563c0.202-0.111,0.401-0.218,0.605-0.329c-0.241-1.611-0.214-3.32-0.771-4.812
	c-1.261-3.38-2.668-6.72-4.278-9.945c-1.46-2.928-2.859-5.809-1.836-9.149c1.084-3.534,3.467-5.722,7.19-6.276
	c3.573-0.53,6.504,0.633,8.619,3.574c2.319,3.217,2.262,6.684,0.41,10.012c-2.678,4.812-5.23,9.636-5.854,15.224
	c-0.046,0.416-0.097,0.831-0.097,1.247c0.002,0.146,0.148,0.289,0.407,0.756c0.732-0.546,1.475-1.009,2.107-1.587
	c3.87-3.534,6.363-8.002,8.696-12.62c3.186-6.304,10.902-7.238,15.256-1.971c4.23,5.117,1.423,13.024-5.117,14.243
	c-4.299,0.799-8.674,1.23-12.931,2.192c-2.305,0.518-4.438,1.808-6.646,2.75c-0.025,0.372-0.051,0.744-0.075,1.12
	c2.977,1.151,5.885,2.572,8.952,3.376c2.657,0.7,5.49,0.783,8.259,0.997c5.748,0.443,9.315,3.807,9.354,8.943
	c0.031,4.496-2.358,7.84-6.39,8.937c-4.086,1.107-8.099-0.653-10.354-4.46c-2.058-3.471-4.054-6.993-6.342-10.31
	c-1.197-1.737-2.956-3.087-4.46-4.61c-0.318,0.135-0.637,0.27-0.953,0.407c0.467,2.209,0.662,4.523,1.462,6.605
	c1.296,3.363,2.927,6.608,4.529,9.846c1.816,3.669,2.204,7.258-0.418,10.682c-2.808,3.66-7.549,4.539-11.553,2.264
	c-3.806-2.161-5.493-6.728-3.754-10.935c1.379-3.34,3.184-6.498,4.659-9.799c1.224-2.734,1.968-5.604,1.773-9.232
	c-4.47,3.348-7.383,7.147-9.622,11.532c-0.842,1.646-1.621,3.363-2.721,4.832c-2.435,3.24-6.405,4.25-10.194,2.825
	c-3.497-1.318-5.873-4.892-5.778-8.698c0.097-3.827,2.58-7.183,6.328-8.26c1.437-0.411,2.979-0.565,4.483-0.609
	c5.161-0.154,9.977-1.531,14.556-3.834C45.635,50.478,46,50.137,46.792,49.571z"/>
</svg>
