<?xml version="1.0" encoding="utf-8"?>
<!-- Generator: Adobe Illustrator 16.0.4, SVG Export Plug-In . SVG Version: 6.00 Build 0)  -->
<!DOCTYPE svg PUBLIC "-//W3C//DTD SVG 1.1//EN" "http://www.w3.org/Graphics/SVG/1.1/DTD/svg11.dtd">
<svg version="1.1" id="Layer_1" xmlns="http://www.w3.org/2000/svg" xmlns:xlink="http://www.w3.org/1999/xlink" x="0px" y="0px"
	 width="100px" height="100px" viewBox="0 0 100 100" enable-background="new 0 0 100 100" xml:space="preserve">
<g>
	<path fill="#160521" d="M50,99.999c-27.57,0-50-22.43-50-50C0,22.43,22.431,0,50,0s50,22.43,50,49.999
		C100,77.569,77.57,99.999,50,99.999z M50,2.026c-26.453,0-47.975,21.521-47.975,47.973c0,26.453,21.521,47.975,47.975,47.975
		c26.454,0,47.974-21.521,47.974-47.975C97.975,23.548,76.454,2.026,50,2.026z"/>
</g>
<path fill="#160521" d="M50.002,11.72c-21.171,0-38.332,17.161-38.332,38.331c0,21.169,17.161,38.33,38.332,38.33
	c21.164,0,38.329-17.161,38.329-38.33C88.331,28.881,71.166,11.72,50.002,11.72z M50.002,75.823
	c-14.236,0-25.775-11.543-25.775-25.772c0-14.238,11.539-25.773,25.775-25.773c14.23,0,25.771,11.535,25.771,25.773
	C75.773,64.28,64.232,75.823,50.002,75.823z"/>
<path fill="#160521" d="M50,37.771c-6.779,0-12.278,5.494-12.278,12.283c0,6.775,5.499,12.274,12.278,12.274
	c6.78,0,12.279-5.499,12.279-12.274C62.279,43.266,56.78,37.771,50,37.771z"/>
</svg>
