<svg width="27" height="37" viewBox="0 0 27 37" fill="none" xmlns="http://www.w3.org/2000/svg">
<path d="M13.4974 36.4773C20.9633 36.4773 26.4008 32.1989 26.3838 26.3011C26.4008 21.9375 23.6736 18.8011 18.7815 18.1023V17.8296C22.5656 17.0114 25.1054 14.1989 25.0883 10.2784C25.1054 4.96024 20.5713 0.613647 13.5997 0.613647C6.81561 0.613647 1.56561 4.65342 1.42924 10.5H7.51447C7.61674 7.56819 10.344 5.74433 13.5656 5.74433C16.8213 5.74433 18.9861 7.7216 18.969 10.6534C18.9861 13.7046 16.4633 15.733 12.8497 15.733H9.76447V20.608H12.8497C17.2645 20.608 19.8895 22.8239 19.8724 25.9773C19.8895 29.0625 17.2133 31.1761 13.4804 31.1761C9.96902 31.1761 7.25879 29.3523 7.10538 26.5057H0.696289C0.866743 32.4034 6.13379 36.4773 13.4974 36.4773Z" fill="white"/>
</svg>
