<?xml version="1.0" encoding="utf-8"?>
<!-- Generator: Adobe Illustrator 16.0.4, SVG Export Plug-In . SVG Version: 6.00 Build 0)  -->
<!DOCTYPE svg PUBLIC "-//W3C//DTD SVG 1.1//EN" "http://www.w3.org/Graphics/SVG/1.1/DTD/svg11.dtd">
<svg version="1.1" id="Layer_1" xmlns="http://www.w3.org/2000/svg" xmlns:xlink="http://www.w3.org/1999/xlink" x="0px" y="0px"
	 width="100px" height="100px" viewBox="0 0 100 100" enable-background="new 0 0 100 100" xml:space="preserve">
<g>
	<path fill="#FFFFFF" d="M49.996,99.998c-27.567,0-49.995-22.43-49.995-50c0-27.569,22.428-49.999,49.995-49.999
		C77.57-0.001,100,22.429,100,49.998C100,77.568,77.57,99.998,49.996,99.998z M49.996,2.024c-26.45,0-47.97,21.522-47.97,47.974
		c0,26.454,21.52,47.975,47.97,47.975c26.456,0,47.979-21.521,47.979-47.975C97.975,23.547,76.452,2.024,49.996,2.024z"/>
</g>
<g>
	<g>
		<path fill="#FFFFFF" d="M40.91,75.616h-9.926c-0.69,0-1.25-0.56-1.25-1.25V25.632c0-0.69,0.56-1.25,1.25-1.25h9.926
			c0.69,0,1.25,0.56,1.25,1.25v48.734C42.16,75.057,41.601,75.616,40.91,75.616z"/>
	</g>
	<g>
		<path fill="#FFFFFF" d="M69.017,75.616h-9.926c-0.69,0-1.25-0.56-1.25-1.25V25.632c0-0.69,0.56-1.25,1.25-1.25h9.926
			c0.69,0,1.25,0.56,1.25,1.25v48.734C70.267,75.057,69.707,75.616,69.017,75.616z"/>
	</g>
</g>
</svg>
