<?xml version="1.0" encoding="utf-8"?>
<!-- Generator: Adobe Illustrator 16.0.4, SVG Export Plug-In . SVG Version: 6.00 Build 0)  -->
<!DOCTYPE svg PUBLIC "-//W3C//DTD SVG 1.1//EN" "http://www.w3.org/Graphics/SVG/1.1/DTD/svg11.dtd">
<svg version="1.1" id="Capa_1" xmlns="http://www.w3.org/2000/svg" xmlns:xlink="http://www.w3.org/1999/xlink" x="0px" y="0px"
	 width="260px" height="260px" viewBox="0 0 260 260" enable-background="new 0 0 260 260" xml:space="preserve">
<g>
	<g>
		<path fill="#D8D8EC" d="M232.143,37.143H27.857C12.472,37.143,0,49.615,0,65v130c0,15.385,12.472,27.857,27.857,27.857h204.286
			C247.527,222.857,260,210.385,260,195V65C260,49.615,247.527,37.143,232.143,37.143z M241.428,195
			c0,5.129-4.156,9.285-9.285,9.285H27.857c-5.128,0-9.286-4.156-9.286-9.285v-5.441l37.143-37.143l30.578,30.578
			c3.625,3.625,9.504,3.625,13.13,0l77.006-77.007l65,65L241.428,195L241.428,195z M241.428,144.727l-58.434-58.434
			c-3.627-3.625-9.505-3.625-13.131,0l-77.006,77.006l-30.578-30.578c-3.626-3.626-9.504-3.626-13.13,0l-30.578,30.578V65
			c0-5.128,4.157-9.286,9.286-9.286h204.286c5.129,0,9.286,4.157,9.286,9.286L241.428,144.727L241.428,144.727z"/>
	</g>
</g>
<g>
	<g>
		<path fill="#D8D8EC" d="M83.571,74.286c-15.385,0-27.857,12.472-27.857,27.857S68.187,130,83.571,130
			c15.385,0,27.857-12.472,27.857-27.857S98.957,74.286,83.571,74.286z M83.571,111.429c-5.128,0-9.286-4.158-9.286-9.286
			s4.157-9.286,9.286-9.286s9.286,4.157,9.286,9.286S88.7,111.429,83.571,111.429z"/>
	</g>
</g>
</svg>
