<?xml version="1.0" encoding="utf-8"?>
<!-- Generator: Adobe Illustrator 16.0.4, SVG Export Plug-In . SVG Version: 6.00 Build 0)  -->
<!DOCTYPE svg PUBLIC "-//W3C//DTD SVG 1.1//EN" "http://www.w3.org/Graphics/SVG/1.1/DTD/svg11.dtd">
<svg version="1.1" id="Layer_1" xmlns="http://www.w3.org/2000/svg" xmlns:xlink="http://www.w3.org/1999/xlink" x="0px" y="0px"
	 width="512px" height="512px" viewBox="0 0 512 512" enable-background="new 0 0 512 512" xml:space="preserve">
<path fill="#D8D8EC" d="M399.095,208.848c13.435,13.286,20.779,30.935,20.682,49.694c-0.097,18.764-7.628,36.339-21.204,49.489
	c-4.555,4.411-10.438,6.606-16.314,6.606c-6.128,0-12.247-2.386-16.847-7.136c-9.012-9.304-8.773-24.15,0.529-33.16
	c4.44-4.301,6.903-9.999,6.935-16.043c0.032-6.041-2.369-11.759-6.76-16.101c-9.209-9.108-9.291-23.957-0.184-33.165
	C375.039,199.822,389.887,199.742,399.095,208.848L399.095,208.848z M464.589,142.191c-9.112-9.207-23.959-9.282-33.165-0.172
	c-9.206,9.111-9.283,23.959-0.173,33.165c22.018,22.248,34.038,51.812,33.844,83.242c-0.193,31.434-12.567,60.883-34.844,82.929
	c-9.206,9.11-9.283,23.959-0.172,33.165c4.587,4.635,10.627,6.955,16.669,6.955c5.96,0,11.924-2.26,16.496-6.781
	c31.17-30.848,48.483-72.035,48.754-115.978C512.267,214.737,495.43,173.355,464.589,142.191L464.589,142.191z M318.938,101.029
	v309.959c0,31.363-18.955,58.802-48.289,69.902c-8.764,3.316-17.801,4.926-26.718,4.927c-20.873,0.002-41.089-8.821-55.64-25.225
	l-67.687-74.642c-7.986-8.808-20.773-13.857-32.662-13.857C39.451,372.094,0,332.643,0,284.15v-49.247
	c0-48.492,39.451-87.942,87.942-87.942c12.456,0,24.21-5.457,32.249-14.973l66.719-78.964c20.42-24.366,52.916-33.099,82.802-22.246
	C299.615,41.641,318.938,69.215,318.938,101.029L318.938,101.029z M272.035,101.029c0-18.1-14.033-24.602-18.334-26.165
	c-1.819-0.66-5.539-1.76-10.105-1.76c-6.233,0-14.043,2.049-20.748,10.061c-0.023,0.027-66.83,79.096-66.83,79.096
	c-16.97,20.083-41.782,31.603-68.076,31.603c-22.629,0-41.04,18.411-41.04,41.04v49.247c0,22.63,18.411,41.04,41.04,41.04
	c25.098,0,50.547,10.663,67.406,29.253c0,0,67.917,74.898,67.985,74.975c11.812,13.371,26.497,9.204,30.715,7.604
	c4.219-1.596,17.984-8.191,17.984-26.035V101.029H272.035z"/>
</svg>
