<?xml version="1.0" encoding="utf-8"?>
<!-- Generator: Adobe Illustrator 26.0.1, SVG Export Plug-In . SVG Version: 6.00 Build 0)  -->
<svg version="1.1" id="Слой_1" xmlns="http://www.w3.org/2000/svg" xmlns:xlink="http://www.w3.org/1999/xlink" x="0px" y="0px"
	 viewBox="0 0 396.5 185" style="enable-background:new 0 0 396.5 185;" xml:space="preserve">
<style type="text/css">
	.st0{clip-path:url(#SVGID_00000095337488319368957690000016584824509971456930_);}
	.st1{fill:#FFF200;}
	.st2{fill:#FFF980;}
	.st3{fill:#80DBF5;}
	.st4{fill:#FF80C8;}
	.st5{fill:#FF0090;}
	.st6{fill:#00B7EB;}
	.st7{display:none;}
	.st8{display:inline;}
	.st9{fill:#110E0E;}
	.st10{display:inline;fill:#110E0E;}
</style>
<g>
	<g>
		<g>
			<defs>
				<path id="SVGID_1_" d="M378.7,152.9c-1,3.1-2.8,6-5.2,8.3c-3.6,3.5-8.4,5.5-13.4,5.6l-68.7,1.5c-8.7,0.2-16.8-3.6-22.2-10.3
					l-34.8-42.8c-4.5-5.6-6.3-12.8-4.8-19.8l15.2-72.2c1.1-5.1,5.1-8.9,10.2-9.8l75.4-13.1c4.2-0.7,8.4-0.1,12.2,1.8
					c3.8,1.9,6.8,4.9,8.7,8.7l29.2,57.5c2.4,4.6,3.4,9.8,3.1,15l-3.9,64.8C379.5,149.7,379.2,151.4,378.7,152.9z"/>
			</defs>
			<clipPath id="SVGID_00000134953301558562015020000006716419731283622820_">
				<use xlink:href="#SVGID_1_"  style="overflow:visible;"/>
			</clipPath>
			<g style="clip-path:url(#SVGID_00000134953301558562015020000006716419731283622820_);">
				<path class="st1" d="M393.9,199.2c-53.6,3.4-107.2,6.7-160.8,10.1L332.2,97C352.7,131,373.3,165.1,393.9,199.2z"/>
				<polygon class="st2" points="226.7,103.5 233.3,209.3 332.4,96.9 				"/>
				<path class="st3" d="M344.7-10.4c-4.2,35.7-8.3,71.4-12.5,107L219.8-2.5C261.4-5.1,303-7.8,344.7-10.4z"/>
				<path class="st4" d="M344.7-10.4c-4.3,35.6-8.6,71.3-12.9,106.9C373,71.2,414.2,46,455.4,20.7C418.5,10.3,381.6-0.1,344.7-10.4z
					"/>
				<path class="st5" d="M395.6,200.6c11.2-55.6,22.5-111.1,33.7-166.7c-32.5,20.9-65,41.7-97.5,62.6
					C353.1,131.2,374.4,165.9,395.6,200.6z"/>
				<polygon class="st6" points="226.4,103 332.1,96.3 219.8,-2.7 				"/>
			</g>
		</g>
	</g>
	<g>
		<g>
			<g>
				<g>
					<path d="M102.4,17.2h31.9l-30.7,144.6l-25.9-28.6L102.4,17.2z"/>
					<path d="M205.5,17.2h31.9l-30.7,144.6l-25.9-28.6L205.5,17.2z"/>
				</g>
			</g>
			<g>
				<g>
					<g>
						<g>
							<g>
								<g>
									<g>
										<g>
											<ellipse transform="matrix(0.3798 -0.9251 0.9251 0.3798 52.5871 322.7587)" cx="267" cy="122.2" rx="4.9" ry="10.9"/>
										</g>
										<g>
											<path d="M378.7,152.9c-1,3.1-2.8,6-5.2,8.3c-3.6,3.5-8.4,5.5-13.4,5.6l-68.7,1.5c-8.7,0.2-16.8-3.6-22.2-10.3l-34.8-42.8
												c-4.5-5.6-6.3-12.8-4.8-19.8l15.2-72.2c1.1-5.1,5.1-8.9,10.2-9.8l75.4-13.1c4.2-0.7,8.4-0.1,12.2,1.8
												c3.8,1.9,6.8,4.9,8.7,8.7l29.2,57.5c2.4,4.6,3.4,9.8,3.1,15l-3.9,64.8C379.5,149.7,379.2,151.4,378.7,152.9z M231,95.8
												l1.5,0.3c-1.3,6.1,0.2,12.4,4.2,17.3l34.8,42.8c4.9,6,12.1,9.3,19.8,9.2l68.7-1.5c8.8-0.2,16.1-7.2,16.6-16l3.9-64.8
												c0.3-4.7-0.7-9.3-2.8-13.5l-29.2-57.5C345.2,5.5,338,2,330.8,3.2l-75.4,13.2c-3.9,0.7-7,3.6-7.8,7.5l-15.2,72.2L231,95.8
												z"/>
										</g>
										<g>
											<path d="M365.5,162.7c-0.1,0.4-0.3,0.7-0.5,1c-1.1,1.9-3.3,2.6-5,2.7l-67.3,1.5c-8,0.1-16.3-1-22.7-9.4l-33.7-43.9
												c-1.4-1.9-1.7-4.3-0.8-6.4c1-2.2,2.9-3.6,5.3-3.7l78.3-6.3c5.7-0.5,11.1,2.3,14.1,7.3l31.6,52.5l0,0
												C365.9,160,365.9,161.5,365.5,162.7z M237.3,109.4c-0.4,1.3-0.2,2.8,0.7,3.9l33.7,43.9c5.5,7.2,12.4,8.7,21,8.6l67.2-1.5
												c1.1,0,2.6-0.5,3.3-1.7c0.6-1,0.5-2.3-0.2-3.8l-31.4-52.4c-2.6-4.3-7.3-6.7-12.2-6.3l-78.3,6.3c-1.6,0.1-3,1.1-3.6,2.6
												C237.4,109.1,237.4,109.2,237.3,109.4z"/>
										</g>
										<g>
											<path d="M378.5,152c-0.6,1.9-2.1,3.3-4.1,3.7c-2.5,0.6-4.9-0.4-6.2-2.7L338,101.5c-2.3-3.9-3.2-8.4-2.6-12.9l9.5-76.4
												c0.2-1.2,1.3-2.3,2.7-2.5c1.4-0.3,2.6,0.3,3.2,1.3c7.4,14.2,28,55.2,29.9,58.9c2,4,2.3,9.3,2.4,9.5v0.1l-4.3,70.9
												C378.7,151.1,378.6,151.6,378.5,152z M346.9,12.5l-9.5,76.4c-0.5,4,0.3,8.1,2.4,11.6l30.1,51.6c1,1.7,2.7,2,4,1.7
												s2.7-1.3,2.8-3.4l4.3-70.9c0-0.6-0.5-5.3-2.1-8.7c-1.8-3.7-22.4-44.7-29.8-58.9c-0.1-0.3-0.6-0.3-1-0.3
												C347.4,11.8,346.9,12.2,346.9,12.5L346.9,12.5z"/>
										</g>
										<g>
											<g>
												<path d="M328.7,86.6c-1.1,3.4-4.2,5.9-7.8,6.2l-82.6,6c-2.1,0.2-4.2-0.7-5.6-2.3c-1.4-1.6-2-3.8-1.5-5.9L246,23
													c1.1-4.8,4.9-8.5,9.8-9.3L332,1.1c2-0.3,4,0.3,5.5,1.7s2.2,3.4,1.9,5.4L329,85.1C329,85.6,328.9,86.1,328.7,86.6z
													 M248.2,22.5c-0.1,0.3-0.2,0.6-0.2,0.9L233.3,91c-0.3,1.5,0.1,3,1.1,4.1s2.4,1.7,3.9,1.6l82.6-6
													c3.2-0.2,5.9-2.7,6.3-5.9L337.6,8c0.2-1.4-0.3-2.8-1.3-3.7c-1-1-2.4-1.4-3.8-1.2l-76.3,12.6
													C252.3,16.3,249.3,18.9,248.2,22.5z"/>
											</g>
											<g>
												<g>
													<ellipse transform="matrix(0.5746 -0.8184 0.8184 0.5746 85.602 230.8768)" cx="264.9" cy="33.1" rx="10.2" ry="6.9"/>
												</g>
												<g>
													<path d="M274.2,24.5c0.6,0.5,1.2,1.1,1.6,1.8s0.7,1.5,0.9,2.3c0.2,0.8,0.3,1.6,0.3,2.5c0,0.8,0,1.7-0.2,2.5
														c-0.1,0.4-0.1,0.8-0.2,1.2c0,0.2-0.1,0.4-0.2,0.6c-0.1,0.2-0.1,0.4-0.2,0.6l-0.2,0.6c-0.1,0.2-0.2,0.4-0.2,0.6
														c-0.1,0.2-0.2,0.4-0.3,0.6l-0.3,0.6c-0.1,0.2-0.2,0.4-0.3,0.6l-0.3,0.5c-0.2,0.4-0.4,0.7-0.7,1.1
														c-0.5,0.7-1,1.3-1.6,1.9c-0.6,0.6-1.2,1.2-1.9,1.7c-0.7,0.5-1.4,1-2.2,1.4c-0.8,0.4-1.6,0.8-2.4,1
														c-0.2,0.1-0.4,0.1-0.6,0.2c-0.2,0.1-0.4,0.1-0.7,0.1c-0.4,0.1-0.9,0.1-1.3,0.2c-0.2,0-0.5,0-0.7,0s-0.5,0-0.7,0
														c-0.5,0-0.9-0.1-1.4-0.2c-0.9-0.2-1.8-0.6-2.5-1.1s-1.4-1.2-1.8-1.9c-0.5-0.7-0.7-1.5-0.8-2.3c0.3,0.7,0.8,1.3,1.3,1.8
														s1.2,0.9,1.8,1.2c1.4,0.6,2.9,0.7,4.3,0.4s2.8-0.8,4.1-1.6c1.3-0.8,2.4-1.7,3.4-2.8c0.5-0.5,1-1.1,1.4-1.7
														c0.2-0.3,0.4-0.6,0.6-0.9l0.3-0.5c0.1-0.2,0.2-0.3,0.3-0.5c0.7-1.3,1.3-2.6,1.7-4c0.1-0.3,0.2-0.7,0.3-1.1
														c0.1-0.4,0.1-0.7,0.2-1.1c0.1-0.7,0.1-1.5,0.1-2.2s-0.1-1.5-0.3-2.2C274.9,25.8,274.6,25.1,274.2,24.5z"/>
												</g>
											</g>
											<g>
												<g>
													
														<ellipse transform="matrix(0.5746 -0.8184 0.8184 0.5746 112.4912 267.4752)" cx="313.6" cy="25.5" rx="10.2" ry="6.9"/>
												</g>
												<g>
													<path d="M307.2,17.9c1.5-2.4,3.8-4.4,6.7-5.5c1.5-0.5,3.1-0.8,4.8-0.6c1.7,0.2,3.4,0.9,4.7,2.1c0.7,0.6,1.3,1.2,1.8,2
														c0.5,0.7,0.9,1.5,1.2,2.3c0.6,1.6,0.8,3.3,0.8,5c0,0.8-0.1,1.6-0.3,2.4c-0.2,0.8-0.4,1.6-0.6,2.3
														c-0.5,1.5-1.2,3-2.1,4.3s-1.9,2.5-3.1,3.6s-2.5,2-4,2.7s-3.1,1.2-4.8,1.4c-0.8,0.1-1.7,0.1-2.6,0s-1.7-0.3-2.5-0.6
														c-1.6-0.7-3.1-1.8-4.1-3.2c-0.1-0.2-0.2-0.4-0.4-0.5l-0.3-0.6l-0.1-0.3l-0.1-0.3c-0.1-0.2-0.2-0.4-0.2-0.6
														c-0.1-0.2-0.1-0.4-0.2-0.6c-0.1-0.2-0.1-0.4-0.2-0.6c-0.1-0.4-0.2-0.8-0.2-1.2v-0.6c0-0.2,0-0.4,0-0.6
														c0-0.4,0-0.8,0.1-1.1c0.1-0.8,0.2-1.5,0.4-2.2c0.1-0.4,0.2-0.7,0.3-1c0.1-0.3,0.3-0.7,0.4-1l0.5-0.9
														c0.2-0.3,0.4-0.6,0.6-0.9c-0.5,1.3-0.9,2.6-1.1,4s-0.1,2.8,0.1,4.1c0.1,0.3,0.2,0.7,0.3,1c0,0.2,0.1,0.3,0.2,0.5
														s0.1,0.3,0.2,0.5l0.2,0.5l0.1,0.2l0.1,0.2l0.3,0.4c0.1,0.1,0.2,0.3,0.3,0.4c0.9,1.1,2,1.9,3.4,2.3
														c1.3,0.4,2.7,0.5,4.1,0.3s2.7-0.7,3.9-1.3c2.4-1.3,4.5-3.3,6-5.6s2.5-5,2.7-7.7c0.1-1.4,0-2.8-0.5-4.1
														c-0.4-1.3-1.1-2.5-2.1-3.5s-2.3-1.6-3.6-1.9c-1.3-0.3-2.8-0.2-4.1,0.1C311.5,14.4,309.1,16,307.2,17.9z"/>
												</g>
											</g>
											<g>
												<g>
													<ellipse transform="matrix(0.5746 -0.8184 0.8184 0.5746 71.561 281.0304)" cx="306.1" cy="71.7" rx="10.2" ry="6.9"/>
												</g>
												<g>
													<path d="M315.4,63.1c0.6,0.5,1.2,1.1,1.6,1.8c0.4,0.7,0.7,1.5,0.9,2.3c0.2,0.8,0.3,1.6,0.3,2.5c0,0.8,0,1.7-0.2,2.5
														c-0.1,0.4-0.1,0.8-0.2,1.2c0,0.2-0.1,0.4-0.2,0.6s-0.1,0.4-0.2,0.6l-0.2,0.6c-0.1,0.2-0.2,0.4-0.2,0.6
														c-0.1,0.2-0.2,0.4-0.3,0.6l-0.3,0.6c-0.1,0.2-0.2,0.4-0.3,0.6l-0.3,0.5c-0.2,0.4-0.4,0.7-0.7,1.1
														c-0.5,0.7-1,1.3-1.6,1.9s-1.2,1.2-1.9,1.7c-0.7,0.5-1.4,1-2.2,1.4c-0.8,0.4-1.6,0.8-2.4,1c-0.2,0.1-0.4,0.1-0.6,0.2
														s-0.4,0.1-0.7,0.1c-0.4,0.1-0.9,0.1-1.3,0.2c-0.2,0-0.5,0-0.7,0s-0.5,0-0.7,0c-0.5,0-0.9-0.1-1.4-0.2
														c-0.9-0.2-1.8-0.6-2.5-1.1s-1.4-1.2-1.8-1.9c-0.5-0.7-0.7-1.5-0.8-2.3c0.3,0.7,0.8,1.3,1.3,1.8s1.2,0.9,1.8,1.2
														c1.4,0.6,2.9,0.7,4.3,0.4c1.4-0.3,2.8-0.8,4.1-1.6c1.3-0.8,2.4-1.7,3.4-2.8c0.5-0.5,1-1.1,1.4-1.7
														c0.2-0.3,0.4-0.6,0.6-0.9l0.3-0.5c0.1-0.2,0.2-0.3,0.3-0.5c0.7-1.3,1.3-2.6,1.7-4c0.1-0.3,0.2-0.7,0.3-1.1
														c0.1-0.4,0.1-0.7,0.2-1.1c0.1-0.7,0.1-1.5,0.1-2.2s-0.1-1.5-0.3-2.2C316.1,64.4,315.8,63.7,315.4,63.1z"/>
												</g>
											</g>
											<g>
												<g>
													
														<ellipse transform="matrix(0.5746 -0.8184 0.8184 0.5746 46.1337 243.5103)" cx="257.3" cy="77.4" rx="10.2" ry="6.9"/>
												</g>
												<g>
													<path d="M266.6,68.8c0.6,0.5,1.2,1.1,1.6,1.8c0.4,0.7,0.7,1.5,0.9,2.3c0.2,0.8,0.3,1.6,0.3,2.5c0,0.8,0,1.7-0.2,2.5
														c-0.1,0.4-0.1,0.8-0.2,1.2c0,0.2-0.1,0.4-0.2,0.6s-0.1,0.4-0.2,0.6l-0.2,0.6c-0.1,0.2-0.2,0.4-0.2,0.6
														c-0.1,0.2-0.2,0.4-0.3,0.6l-0.3,0.6c-0.1,0.2-0.2,0.4-0.3,0.6l-0.3,0.5c-0.2,0.4-0.4,0.7-0.7,1.1
														c-0.5,0.7-1,1.3-1.6,1.9s-1.2,1.2-1.9,1.7c-0.7,0.5-1.4,1-2.2,1.4c-0.8,0.4-1.6,0.8-2.4,1c-0.2,0.1-0.4,0.1-0.6,0.2
														s-0.4,0.1-0.7,0.1c-0.4,0.1-0.9,0.1-1.3,0.2c-0.2,0-0.5,0-0.7,0s-0.5,0-0.7,0c-0.5,0-0.9-0.1-1.4-0.2
														c-0.9-0.2-1.8-0.6-2.5-1.1s-1.4-1.2-1.8-1.9c-0.5-0.7-0.7-1.5-0.8-2.3c0.3,0.7,0.8,1.3,1.3,1.8s1.2,0.9,1.8,1.2
														c1.4,0.6,2.9,0.7,4.3,0.4c1.4-0.3,2.8-0.8,4.1-1.6c1.3-0.8,2.4-1.7,3.4-2.8c0.5-0.5,1-1.1,1.4-1.7
														c0.2-0.3,0.4-0.6,0.6-0.9l0.3-0.5c0.1-0.2,0.2-0.3,0.3-0.5c0.7-1.3,1.3-2.6,1.7-4c0.1-0.3,0.2-0.7,0.3-1.1
														c0.1-0.4,0.1-0.7,0.2-1.1c0.1-0.7,0.1-1.5,0.1-2.2s-0.1-1.5-0.3-2.2C267.3,70.1,267,69.4,266.6,68.8z"/>
												</g>
											</g>
											<g>
												<g>
													
														<ellipse transform="matrix(0.5746 -0.8184 0.8184 0.5746 77.4833 255.5052)" cx="284.5" cy="53.2" rx="10.2" ry="6.9"/>
												</g>
												<g>
													<path d="M288.3,40.6c0.4-0.1,0.9-0.2,1.3-0.2s0.9,0,1.4,0c0.9,0.1,1.8,0.4,2.7,0.9c0.8,0.5,1.6,1.1,2.3,1.9
														c0.2,0.2,0.3,0.4,0.5,0.6c0.1,0.2,0.3,0.4,0.4,0.6c0.1,0.2,0.3,0.4,0.4,0.7c0.1,0.2,0.2,0.5,0.3,0.7
														c0.2,0.5,0.3,0.9,0.5,1.4c0.1,0.2,0.1,0.5,0.2,0.7c0,0.2,0.1,0.5,0.1,0.7c0.1,1,0.2,2,0.1,2.9c-0.1,1-0.2,1.9-0.5,2.8
														c-0.2,0.9-0.6,1.8-1,2.7s-0.9,1.7-1.4,2.5c-0.1,0.2-0.3,0.4-0.4,0.6s-0.3,0.4-0.4,0.6l-0.4,0.5
														c-0.1,0.1-0.1,0.2-0.2,0.3l-0.2,0.3c-0.3,0.3-0.6,0.7-1,1c-0.2,0.2-0.3,0.3-0.5,0.5s-0.4,0.3-0.6,0.4l-0.6,0.4
														c-0.2,0.1-0.4,0.3-0.6,0.4s-0.4,0.3-0.6,0.4l-0.6,0.3c-0.8,0.4-1.7,0.8-2.6,1.1c-0.9,0.2-1.8,0.4-2.8,0.5
														c-0.5,0-0.9,0-1.4,0c-0.2,0-0.5-0.1-0.7-0.1s-0.4-0.1-0.7-0.1l-0.7-0.2c-0.2-0.1-0.4-0.2-0.6-0.2l-0.3-0.1
														c-0.1,0-0.2-0.1-0.3-0.2c-0.2-0.1-0.4-0.2-0.6-0.4c1.6,0.4,3.3,0.4,4.9,0c0.8-0.2,1.6-0.5,2.3-0.8
														c0.4-0.2,0.7-0.4,1.1-0.6c0.3-0.2,0.7-0.4,1-0.6c1.4-0.9,2.6-2,3.6-3.3s1.9-2.7,2.6-4.2s1.1-3.1,1.3-4.7
														c0.2-1.6,0.1-3.3-0.4-4.9c-0.2-0.8-0.6-1.5-1-2.2s-1-1.3-1.6-1.8s-1.3-0.9-2.1-1.2C289.9,40.8,289.1,40.7,288.3,40.6z"
														/>
												</g>
											</g>
											<g>
												<path d="M250,92.6l-12.1,0.9c-0.6,0-1-0.3-1.2-0.5s-0.5-0.7-0.3-1.3l3.4-15.6c-0.2,1-2.1,13.4-1.1,15
													C239.7,92.7,249.4,92.7,250,92.6z"/>
											</g>
											<g>
												<path d="M275.1,15.8c-0.6,0.1-19.1,4.8-21.1,8.7c-2.1,3.9-8.3,24.2-8.3,24.2l5.4-24.6c0-0.2,0.1-0.4,0.2-0.6
													c0.8-2.4,2.8-4.2,5.4-4.6L275.1,15.8z"/>
											</g>
											<g>
												<polygon points="285.9,20.2 276,28.3 276.4,31.3 												"/>
											</g>
											<g>
												<path d="M259.9,45.5c0,0-4.7,4-6.4,5.4s0.1,3,1.1,2.7l-8,7.6L243.8,74c0,0,21.2-20.1,23.1-21.8s0.2-3.6-0.5-3.6l5.2-5.4
													l-7.3,2.7L259.9,45.5z"/>
											</g>
											<g>
												<path d="M297.5,49.2l11-10.9c0,0-4.9-1.6-5.6-4.9l-8.8,8.8C294.1,42.2,296.9,45.1,297.5,49.2z"/>
											</g>
											<g>
												<path d="M328.1,52.8c-1.4,10.5-2.8,21-4.3,31.6c0,0.2-0.1,0.4-0.1,0.6c-0.4,1.4-1.7,2.4-3.2,2.5l-35.1,2.6l17.7-3.1
													l-9.5-0.6l10.4-2c0,0,6.9-0.9,9.5-4.7c2.6-3.8,4.2-10.5,4.2-10.5s0.9,0.9,0.3,4.1s-2.5,8-2.5,8s5.4-3.8,4.8-13.7
													c1.1-2,2.3-4,3.4-6.1C325.2,58.6,326.6,55.7,328.1,52.8z"/>
											</g>
											<g>
												<path d="M333.9,6.6c0.2,0.2,0.4,0.5,0.3,1l-4.5,33.6l-0.2-7.3l-12.3,14.2l-0.9-3L300,60.2l20-22.9l0.8,2.3
													c0,0,6-6.3,5.2-15.1c0,0,0.5-7.8-4.5-10.6c-5-2.7-17.7,1.1-18.1,1.2l6.1-3L292.3,13l40.6-6.7
													C333.4,6.2,333.7,6.4,333.9,6.6z"/>
											</g>
											<g>
												<polygon points="265.2,91.5 273.1,89 293.1,68.9 276,89.4 280.9,90.4 												"/>
											</g>
										</g>
										<g>
											<g>
												<path d="M358.6,49.4c1.1,0.7,2,1.6,2.7,2.6c0.8,1,1.4,2.1,2,3.2c1.1,2.3,1.7,4.8,2,7.3s0.2,5.1-0.4,7.5
													c-0.3,1.2-0.7,2.4-1.3,3.6c-0.3,0.6-0.6,1.1-1.1,1.6c-0.2,0.2-0.4,0.5-0.7,0.7c-0.2,0.2-0.5,0.4-0.8,0.5
													c0.9-0.8,1.4-2,1.8-3.1s0.7-2.3,0.8-3.5c0.3-2.4,0.3-4.8,0.1-7.2c-0.3-2.4-0.8-4.8-1.6-7
													C361.3,53.3,360.2,51.2,358.6,49.4z"/>
											</g>
										</g>
										<g>
											<path d="M364.9,90.8c0.3,0.2,0.7,0.4,1,0.6c0.2,0.1,0.3,0.2,0.5,0.4c0.1,0.1,0.3,0.2,0.4,0.4c0.1,0.1,0.3,0.3,0.4,0.4
												s0.3,0.3,0.4,0.4c0.3,0.3,0.5,0.6,0.8,0.9c0.9,1.3,1.7,2.7,2.3,4.1c1.3,2.9,2,6,2.2,9.1c0,0.8,0.1,1.6,0.1,2.4
												s-0.1,1.6-0.2,2.4c-0.2,1.6-0.5,3.2-1.2,4.7c-0.3,0.8-0.7,1.5-1.2,2.2c-0.3,0.3-0.5,0.7-0.9,1c-0.3,0.3-0.7,0.6-1.1,0.8
												c-0.8,0.4-1.8,0.6-2.6,0.4c-0.4-0.1-0.8-0.3-1.1-0.5c-0.3-0.2-0.6-0.5-0.9-0.8c0.6,0.4,1.3,0.7,2.1,0.8
												c0.2,0,0.4,0,0.6,0s0.4-0.1,0.6-0.1c0.4-0.1,0.7-0.3,1-0.5c0.6-0.4,1.1-1,1.5-1.7c0.4-0.6,0.7-1.3,0.9-2.1
												c0.5-1.4,0.7-2.9,0.9-4.4c0.1-1.5,0.1-3,0-4.5c-0.2-3-0.8-6-1.8-8.8c-0.5-1.4-1.1-2.8-1.8-4.1
												C367,93,366.1,91.7,364.9,90.8z"/>
										</g>
										<g>
											<path d="M373.7,118.5l-1.6,26.1c0,0.1,0,0.1,0,0.2c-0.1,0.2-0.4,0.2-0.4,0.2c-0.2,0-0.3-0.1-0.4-0.2l-13.6-23.4
												l12.6,17.3L373.7,118.5z"/>
										</g>
										<g>
											<path d="M343.1,80.6c0.6,3.8,1.4,9.8,1.7,12.1c0.4,3.4,8.8,21.4,8.9,21.7l-9.6-16.5c-1.7-2.9-2.4-6.3-2-9.6L343.1,80.6z"
												/>
										</g>
										<g>
											<path d="M351.8,27.9c2.5,5,5.5,10.8,8.5,16.8L352.2,34l-5.4,21.3l3.4-27C350.3,27.4,351.4,27.2,351.8,27.9z"/>
										</g>
										<g>
											<path d="M364.5,155.8c-2.2-2.7-4.2-5.5-6.1-8.4s-3.7-5.8-5.5-8.7c-1.7-3-3.4-6-5-9c-1.6-3.1-3.1-6.2-4.4-9.4
												c2.2,2.7,4.2,5.5,6.1,8.4c1.9,2.9,3.7,5.8,5.5,8.7c1.7,3,3.4,6,5,9S363.2,152.5,364.5,155.8z"/>
											<path d="M366.1,154.9c-2.2-2.7-4.2-5.5-6.1-8.4s-3.7-5.8-5.5-8.7c-1.7-3-3.4-6-5-9c-1.6-3.1-3.1-6.2-4.4-9.4
												c2.2,2.7,4.2,5.5,6.1,8.4c1.9,2.9,3.7,5.8,5.5,8.7c1.7,3,3.4,6,5,9C363.3,148.6,364.8,151.7,366.1,154.9z"/>
											<path d="M367.7,154.1c-2.2-2.7-4.2-5.5-6.1-8.4s-3.7-5.8-5.5-8.7c-1.7-3-3.4-6-5-9c-1.6-3.1-3.1-6.2-4.4-9.4
												c2.2,2.7,4.2,5.5,6.1,8.4c1.9,2.9,3.7,5.8,5.5,8.7c1.7,3,3.4,6,5,9C364.9,147.8,366.4,150.9,367.7,154.1z"/>
										</g>
										<g>
											<path d="M278.6,106.6c-11.2,1.7-22.4,3.3-33.6,5c-0.5,0.1-0.8,0.6-0.5,1.1c3.8,6,7.5,12,11.3,18c0.2,0.2,0.3,0.5,0.5,0.7
												c-5-6.4-10.1-12.8-15.1-19.2c-0.5-0.6-0.4-1.2-0.3-1.6c0.1-0.3,0.4-1.1,1.5-1.2C254.4,108.4,266.5,107.5,278.6,106.6z"/>
										</g>
										<g>
											<path d="M329,108.1l30.9,51.4c0.3,0.7,0.3,1.1,0.3,1.3c-0.1,0.2-0.5,0.5-1.2,0.5c-13.3,0.3-26.6,0.6-39.9,0.9
												c5.3-0.8,10.5-1.6,15.8-2.5c-3.2-0.5-6.3-1.1-9.5-1.6c5-0.3,9.9-0.6,14.9-0.9c0,0,12.3-0.7,11.4-5.6
												c-0.9-4.9-4.8-10.2-4.8-10.2L341,137l0.6-3.9c-6.1-11.1-10.1-17.6-12.9-21.4c-1-1.3-2.5-3.8-5.6-5.2
												c-1.1-0.5-2.4-0.7-4.9-1c-2.9-0.4-4.7-0.4-11.6-0.8c-1.1-0.1-2-0.1-2.5-0.1c5.1-0.4,10.2-0.8,15.3-1.2
												C323.2,102.9,326.9,104.8,329,108.1z"/>
										</g>
										<g>
											<path d="M302.5,162.5l-9.6,0.2c-5.4,0.1-9.8-0.5-13.5-2.7c-1.4-0.8-2.6-1.9-5.1-4.7c-2.7-3-6.3-7.4-10.2-13.3
												c4.5,4.7,8.7,8,11.8,10.3c5.6,4,11.1,8.2,19.2,9.5C297.3,162.1,299.8,162.4,302.5,162.5z"/>
										</g>
										<g>
											<polygon points="310.5,104.7 307.6,116.8 308.6,104.4 											"/>
										</g>
										<g>
											<path d="M278.2,126.5c-0.3,0.9-1,1.7-2,2.2c-2.5,1.2-6.7,0.9-10.9-0.8c-6.3-2.5-10.3-6.7-9.3-9.9l0,0
												c0.3-0.9,1-1.7,2-2.2c2.5-1.2,6.7-0.9,10.9,0.8l0,0C275.2,119,279.2,123.3,278.2,126.5L278.2,126.5z M257.8,118.6
												L257.8,118.6c-0.6,1.8,2.6,5.3,8.1,7.5c4.3,1.7,7.8,1.6,9.4,0.9c0.5-0.3,0.9-0.6,1-1l0,0c0.6-1.8-2.6-5.3-8.1-7.5l0,0
												c-4.3-1.7-7.8-1.6-9.4-0.9C258.3,117.8,257.9,118.1,257.8,118.6z"/>
										</g>
										<g>
											<path d="M259.1,112.7c0.6-0.2,1.2-0.4,1.8-0.5c0.6-0.1,1.2-0.2,1.8-0.3c0.6-0.1,1.3-0.1,1.9,0c0.6,0,1.3,0.1,1.9,0.1
												c2.5,0.3,4.9,1,7.3,2.1c1.2,0.5,2.3,1.2,3.4,1.9c1.1,0.7,2.1,1.6,3,2.6c0.2,0.3,0.5,0.5,0.7,0.8l0.3,0.4
												c0.1,0.1,0.2,0.3,0.3,0.5c0.4,0.6,0.7,1.3,1,2c0.6,1.4,0.8,3.1,0.5,4.7s-1.1,3.2-2.3,4.3c-0.6,0.6-1.2,1-1.9,1.4
												c-0.3,0.2-0.7,0.3-1,0.5c-0.4,0.2-0.7,0.2-1.1,0.4c-1.4,0.4-2.8,0.5-4.2,0.4c-0.7,0-1.3-0.1-2-0.2
												c-0.3-0.1-0.6-0.1-1-0.2c-0.3-0.1-0.6-0.1-0.9-0.2c-0.3-0.1-0.6-0.2-0.9-0.3s-0.6-0.2-0.9-0.3c-0.6-0.2-1.2-0.4-1.8-0.7
												c-0.3-0.1-0.6-0.3-0.9-0.4c-0.3-0.1-0.6-0.3-0.8-0.4c-0.6-0.3-1.1-0.6-1.6-1c-0.5-0.3-1-0.7-1.5-1.1
												c-0.5-0.4-1-0.8-1.4-1.2c-0.5-0.4-0.9-0.9-1.3-1.3c-0.4-0.5-0.8-0.9-1.1-1.5c1.7,1.7,3.7,3,5.9,4.1
												c1.1,0.5,2.2,1,3.3,1.4c1.1,0.4,2.3,0.7,3.5,0.9s2.4,0.3,3.6,0.3s2.4-0.1,3.5-0.5c0.3-0.1,0.6-0.2,0.8-0.3
												c0.3-0.1,0.5-0.2,0.8-0.4c0.5-0.3,1-0.7,1.4-1.1c0.9-0.8,1.4-1.9,1.7-3.1c0.2-1.2,0.1-2.4-0.4-3.5
												c-0.4-1.1-1.1-2.1-1.9-3s-1.7-1.7-2.6-2.4c-1-0.7-2-1.4-3-1.9c-2.1-1.1-4.4-2-6.7-2.6
												C263.9,112.5,261.5,112.3,259.1,112.7z"/>
										</g>
										<g>
											<ellipse transform="matrix(0.3798 -0.9251 0.9251 0.3798 64.2241 362.6785)" cx="302.6" cy="133.4" rx="4.9" ry="10.9"/>
										</g>
										<g>
											<path d="M313.8,137.8c-0.3,0.9-1,1.7-2,2.2c-2.5,1.2-6.7,0.9-10.9-0.8c-6.3-2.5-10.3-6.7-9.3-9.9l0,0
												c0.3-0.9,1-1.7,2-2.2c2.5-1.2,6.7-0.9,10.9,0.8l0,0C310.8,130.3,314.8,134.6,313.8,137.8L313.8,137.8z M293.4,129.9
												L293.4,129.9c-0.6,1.8,2.6,5.3,8.1,7.5c4.3,1.7,7.8,1.6,9.4,0.9c0.5-0.3,0.9-0.6,1-1l0,0c0.6-1.8-2.6-5.3-8.1-7.5l0,0
												c-4.3-1.7-7.8-1.6-9.4-0.9C293.9,129.1,293.5,129.5,293.4,129.9z"/>
										</g>
										<g>
											<path d="M294.7,124c0.6-0.2,1.2-0.4,1.8-0.5c0.6-0.1,1.2-0.2,1.8-0.3c0.6-0.1,1.3-0.1,1.9,0c0.6,0,1.3,0.1,1.9,0.1
												c2.5,0.3,4.9,1,7.3,2.1c1.2,0.5,2.3,1.2,3.4,1.9s2.1,1.6,3,2.6c0.2,0.3,0.5,0.5,0.7,0.8l0.3,0.4c0.1,0.1,0.2,0.3,0.3,0.5
												c0.4,0.6,0.7,1.3,1,2c0.6,1.4,0.8,3.1,0.5,4.7c-0.3,1.6-1.1,3.2-2.3,4.3c-0.6,0.6-1.2,1-1.9,1.4c-0.3,0.2-0.7,0.3-1,0.5
												c-0.4,0.2-0.7,0.2-1.1,0.4c-1.4,0.4-2.8,0.5-4.2,0.4c-0.7,0-1.3-0.1-2-0.2c-0.3-0.1-0.6-0.1-1-0.2
												c-0.3-0.1-0.6-0.1-0.9-0.2c-0.3-0.1-0.6-0.2-0.9-0.3s-0.6-0.2-0.9-0.3c-0.6-0.2-1.2-0.4-1.8-0.7
												c-0.3-0.1-0.6-0.3-0.9-0.4c-0.3-0.1-0.6-0.3-0.8-0.4c-0.6-0.3-1.1-0.6-1.6-1c-0.5-0.3-1-0.7-1.5-1.1
												c-0.5-0.4-1-0.8-1.4-1.2c-0.5-0.4-0.9-0.9-1.3-1.3c-0.4-0.5-0.8-0.9-1.1-1.5c1.7,1.7,3.7,3,5.9,4.1
												c1.1,0.5,2.2,1,3.3,1.4c1.1,0.4,2.3,0.7,3.5,0.9s2.4,0.3,3.6,0.3s2.4-0.1,3.5-0.5c0.3-0.1,0.6-0.2,0.8-0.3
												c0.3-0.1,0.5-0.2,0.8-0.4c0.5-0.3,1-0.7,1.4-1.1c0.9-0.8,1.4-1.9,1.7-3.1c0.2-1.2,0.1-2.4-0.4-3.5
												c-0.4-1.1-1.1-2.1-1.9-3s-1.7-1.7-2.6-2.4c-1-0.7-2-1.4-3-1.9c-2.1-1.1-4.4-2-6.7-2.6C299.5,123.9,297.1,123.6,294.7,124
												z"/>
										</g>
										<g>
											<ellipse transform="matrix(0.3798 -0.9251 0.9251 0.3798 72.6872 401.8494)" cx="336" cy="146.7" rx="4.9" ry="10.9"/>
										</g>
										<g>
											<path d="M347.1,151c-0.3,0.9-1,1.7-2,2.2c-2.5,1.2-6.7,0.9-10.9-0.8c-6.3-2.5-10.3-6.7-9.3-9.9l0,0c0.3-0.9,1-1.7,2-2.2
												c2.5-1.2,6.7-0.9,10.9,0.8l0,0C344.2,143.5,348.2,147.8,347.1,151L347.1,151z M326.8,143L326.8,143
												c-0.6,1.8,2.6,5.3,8.1,7.5c4.3,1.7,7.8,1.6,9.4,0.9c0.5-0.3,0.9-0.6,1-1l0,0c0.6-1.8-2.6-5.3-8.1-7.5l0,0
												c-4.3-1.7-7.8-1.6-9.4-0.9C327.3,142.3,326.9,142.6,326.8,143z"/>
										</g>
										<g>
											<path d="M328.1,137.2c0.6-0.2,1.2-0.4,1.8-0.5c0.6-0.1,1.2-0.2,1.8-0.3c0.6-0.1,1.3-0.1,1.9,0c0.6,0,1.3,0.1,1.9,0.1
												c2.5,0.3,4.9,1,7.3,2.1c1.2,0.5,2.3,1.2,3.4,1.9s2.1,1.6,3,2.6c0.2,0.3,0.5,0.5,0.7,0.8l0.3,0.4c0.1,0.1,0.2,0.3,0.3,0.5
												c0.4,0.6,0.7,1.3,1,2c0.6,1.4,0.8,3.1,0.5,4.7c-0.3,1.6-1.1,3.2-2.3,4.3c-0.6,0.6-1.2,1-1.9,1.4c-0.3,0.2-0.7,0.3-1,0.5
												c-0.4,0.2-0.7,0.2-1.1,0.4c-1.4,0.4-2.8,0.5-4.2,0.4c-0.7,0-1.3-0.1-2-0.2c-0.3-0.1-0.6-0.1-1-0.2
												c-0.3-0.1-0.6-0.1-0.9-0.2c-0.3-0.1-0.6-0.2-0.9-0.3s-0.6-0.2-0.9-0.3c-0.6-0.2-1.2-0.4-1.8-0.7
												c-0.3-0.1-0.6-0.3-0.9-0.4c-0.3-0.1-0.6-0.3-0.8-0.4c-0.6-0.3-1.1-0.6-1.6-1c-0.5-0.3-1-0.7-1.5-1.1
												c-0.5-0.4-1-0.8-1.4-1.2c-0.5-0.4-0.9-0.9-1.3-1.3c-0.4-0.5-0.8-0.9-1.1-1.5c1.7,1.7,3.7,3,5.9,4.1
												c1.1,0.5,2.2,1,3.3,1.4c1.1,0.4,2.3,0.7,3.5,0.9s2.4,0.3,3.6,0.3s2.4-0.1,3.5-0.5c0.3-0.1,0.6-0.2,0.8-0.3
												c0.3-0.1,0.5-0.2,0.8-0.4c0.5-0.3,1-0.7,1.4-1.1c0.9-0.8,1.4-1.9,1.7-3.1c0.2-1.2,0.1-2.4-0.4-3.5
												c-0.4-1.1-1.1-2.1-1.9-3s-1.7-1.7-2.6-2.4c-1-0.7-2-1.4-3-1.9c-2.1-1.1-4.4-2-6.7-2.6C332.9,137,330.4,136.7,328.1,137.2
												z"/>
										</g>
										<g>
											<polygon points="286,160.9 288.9,137.5 289,161.1 											"/>
										</g>
										<g>
											<path d="M284,159.9l3.6-31.9c0.2-1.6-1.5-2.7-2.9-2l-2.7,0.6c0,0-0.7,5.2-4,5.8s-2.7,6.4-1.8,6.6
												c1.6,0.2,4.7-3.9,4.7-3.9s-0.4,1.7-2.2,4.4l-1.9,15.8L284,159.9z"/>
										</g>
										<g>
											<path d="M277.6,116.6l1.3-7l6.4-0.7l-2.7,18.5C281.8,123.6,280.1,120,277.6,116.6z"/>
										</g>
										<g>
											<path d="M312.8,104.7l-4.8,20.7c0,0,5.5,1.8,8.1,6s1.2,4.3,1.2,4.3s3.4,0.4-2.4-9.2c0,0,2.3,1.6,4.1,3.8l5.8-25.1
												L312.8,104.7z"/>
										</g>
										<g>
											<polygon points="327.5,108.4 323,129.6 330.7,123.4 332.3,114.6 											"/>
										</g>
										<g>
											<polygon points="314.7,143.2 310.3,160 305.1,160.3 309.2,144.6 											"/>
										</g>
										<g class="st7">
											<g class="st8">
												<path class="st9" d="M331.7,90.6c0.2-5.1,0.7-10.1,1.2-15.2c0.5-5,1.1-10.1,1.7-15.1s1.4-10,2.2-15.1
													c0.8-5,1.7-10,2.7-15c-0.2,5.1-0.7,10.1-1.2,15.2c-0.5,5-1.1,10.1-1.7,15.1c-0.7,5-1.4,10-2.2,15.1
													C333.6,80.6,332.7,85.6,331.7,90.6z"/>
											</g>
											<g class="st8">
												<path class="st9" d="M339.8,26.2c-0.1-1.5-0.1-3,0-4.5s0.2-3,0.4-4.4c0.2-1.5,0.4-2.9,0.7-4.4c0.3-1.5,0.6-2.9,1.1-4.4
													c0.1,1.5,0.1,3,0,4.5s-0.2,3-0.4,4.4c-0.2,1.5-0.4,2.9-0.7,4.4C340.6,23.3,340.3,24.8,339.8,26.2z"/>
											</g>
											<g class="st8">
												<path class="st9" d="M241.5,101.3c6.1-0.9,12.3-1.5,18.5-2.1c6.2-0.6,12.3-1.1,18.5-1.6c6.2-0.4,12.3-0.8,18.5-1.1
													c6.2-0.3,12.4-0.5,18.6-0.6c-6.1,0.9-12.3,1.5-18.5,2.1s-12.3,1.1-18.5,1.6s-12.3,0.8-18.5,1.1
													C253.9,101.1,247.7,101.3,241.5,101.3z"/>
											</g>
										</g>
										<g class="st7">
											<polygon class="st10" points="267.3,144.6 268,132.6 270.4,133.4 269.4,147.7 											"/>
										</g>
									</g>
									<path d="M359.4,97.5c-0.4,2.4-0.3,5.5,0.2,8.7c1,6,3.6,12.2,6.4,11.7c1-0.2,1.8-1.1,2.2-2.6c0.8-2.6,0.8-6.7,0.2-10.5
										c-0.5-3.2-1.4-6.2-2.5-8.3c-1.2-2.4-2.6-3.6-3.9-3.3C360.7,93.3,359.8,94.8,359.4,97.5z M362.3,94.3c-0.1,0-0.1,0-0.2,0.1
										C362.1,94.4,362.2,94.4,362.3,94.3L362.3,94.3z"/>
									<path d="M352.5,50.7c-1.5,2-1.9,6.7-0.9,12.1c1,6.1,3.8,12.4,6.8,12.1c0.6-0.1,1.2-0.4,1.6-1c0.3-0.4,0.6-1,0.8-1.7
										c0.8-2.4,0.8-6.2,0.1-10.4c-1-6.1-3.8-12.4-6.8-12.1C353.5,49.8,352.9,50.1,352.5,50.7z"/>
								</g>
							</g>
						</g>
					</g>
				</g>
			</g>
		</g>
	</g>
	<polygon points="39.7,19 71.5,19 62.6,61.7 84.6,76.3 75.9,117.7 26.2,83.1 	"/>
	<polygon points="142.9,19 174.7,19 165.8,61.7 187.8,76.3 179.1,117.7 129.5,83.1 	"/>
</g>
</svg>
